<svg xmlns="http://www.w3.org/2000/svg" width="1865" height="448" viewBox="0 0 1865 448" version="1.1"><path d="" stroke="none" fill="#2024ac" fill-rule="evenodd"/><path d="M 276.980 143.736 C 276.968 212.074, 276.578 257.181, 275.961 261.500 C 274.381 272.571, 272.256 279.875, 268.046 288.706 C 255.482 315.063, 234.349 332.396, 206 339.595 C 195.287 342.316, 173.548 342.116, 162.802 339.198 C 133.131 331.143, 109.548 309.668, 99.440 281.500 C 98.453 278.750, 97.575 276.388, 97.490 276.251 C 97.346 276.020, 40.036 292.389, 37.265 293.452 C 35.637 294.076, 40.604 308.252, 46.743 320.500 C 54.184 335.347, 62.434 346.510, 75.962 360.038 C 99.185 383.262, 124.438 396.831, 156.272 403.192 C 171.341 406.202, 197.646 406.408, 212.500 403.630 C 274.760 391.990, 323.415 344.488, 337.045 282.038 C 340.758 265.022, 341.079 252.990, 340.785 141.500 L 340.500 33.500 308.750 33.236 L 277 32.972 276.980 143.736 M 403 216.500 L 403 400 435 400 L 467 400 467.007 282.750 L 467.015 165.500 532.112 282.750 L 597.208 400 632.854 399.980 L 668.500 399.960 733.500 282.738 L 798.500 165.517 798.754 282.758 L 799.008 400 831.004 400 L 863 400 863 216.486 L 863 32.972 830.891 33.236 L 798.782 33.500 716.303 182 C 670.939 263.675, 633.525 330.808, 633.161 331.185 C 632.798 331.561, 595.150 264.624, 549.501 182.435 L 466.502 33 434.751 33 L 403 33 403 216.500 M 1224.750 38.253 L 1214 41.340 1214 114.201 L 1214 187.062 1226.250 186.781 L 1238.500 186.500 1238.763 153.316 L 1239.027 120.132 1244.235 115.575 C 1257.791 103.717, 1277.871 99.077, 1286.858 105.725 C 1292.393 109.820, 1292.475 110.436, 1292.796 150.250 L 1293.092 187 1305.546 187 L 1318 187 1317.992 150.250 C 1317.988 129.406, 1317.531 110.700, 1316.935 107.030 C 1314.233 90.373, 1304.901 83.299, 1284.254 82.256 C 1268.596 81.465, 1256.107 84.675, 1244.250 92.539 L 1239 96.020 1239 65.510 C 1239 37.088, 1238.880 35.006, 1237.250 35.082 C 1236.287 35.128, 1230.662 36.554, 1224.750 38.253 M 1040.983 85.750 C 1040.964 131.965, 1040.467 138.266, 1036.172 146.644 C 1033.289 152.269, 1027.278 157.907, 1021 160.874 C 1016.229 163.129, 1014.175 163.475, 1005.500 163.487 C 996.576 163.499, 994.829 163.190, 989.266 160.620 C 981.947 157.240, 974.872 150.189, 971.679 143.092 L 969.500 138.251 958.196 141.513 C 951.979 143.307, 946.629 145.038, 946.308 145.359 C 945.986 145.680, 947.535 149.719, 949.750 154.334 C 957.005 169.455, 970.614 181.277, 986.500 186.260 C 995.713 189.150, 1013.496 189.330, 1022.500 186.624 C 1041.873 180.802, 1055.018 168.305, 1061.731 149.328 L 1064.500 141.500 1064.794 91.750 L 1065.087 42 1053.044 42 L 1041 42 1040.983 85.750 M 1122.500 83.499 C 1100.327 88.453, 1087.950 100.586, 1083.460 121.773 C 1079.261 141.588, 1084.413 162.544, 1096.440 174.571 C 1106.799 184.930, 1119.789 189.300, 1140 189.227 C 1154.175 189.176, 1165.115 186.878, 1172.914 182.314 C 1183.936 175.863, 1192.233 164.880, 1195.469 152.458 C 1197.560 144.429, 1197.403 126.487, 1195.167 117.919 C 1190.584 100.363, 1176.528 87.524, 1157.500 83.511 C 1148.889 81.695, 1130.604 81.689, 1122.500 83.499 M 1388.782 83.553 C 1382.045 85.186, 1372.404 89.855, 1365.750 94.707 L 1361 98.170 1361 91.585 L 1361 85 1349.500 85 L 1338 85 1338 136.031 L 1338 187.062 1350.250 186.781 L 1362.500 186.500 1362.763 153.316 L 1363.027 120.133 1367.763 116.030 C 1373.716 110.874, 1386.865 104.289, 1393.739 103.022 C 1402.864 101.340, 1410.929 103.912, 1414.736 109.718 C 1416.327 112.145, 1416.529 116.061, 1416.796 149.704 L 1417.091 187 1429.615 187 L 1442.140 187 1441.746 146.250 C 1441.466 117.268, 1440.989 104.345, 1440.093 101.500 C 1437.107 92.013, 1430.090 85.936, 1419.147 83.360 C 1411.933 81.662, 1396.168 81.762, 1388.782 83.553 M 1487 83.751 C 1469.820 88.409, 1461.396 99.739, 1463.454 115.420 C 1465.229 128.936, 1473.367 134.800, 1504.500 144.997 C 1520.008 150.076, 1524 152.630, 1524 157.474 C 1524 162.011, 1520.218 166.318, 1514.809 167.940 C 1508.946 169.698, 1491.983 169.517, 1483.786 167.608 C 1480.094 166.749, 1474.280 164.911, 1470.868 163.524 C 1467.455 162.138, 1464.483 161.184, 1464.262 161.405 C 1463.307 162.360, 1458.078 181.317, 1458.556 182.090 C 1459.390 183.440, 1470.779 186.674, 1479.522 188.044 C 1483.910 188.732, 1493.800 189.289, 1501.500 189.282 C 1516.858 189.269, 1525.676 187.718, 1533.799 183.602 C 1539.745 180.589, 1546.315 173.586, 1548.047 168.416 C 1549.995 162.601, 1549.818 152.323, 1547.674 146.768 C 1544.012 137.277, 1535.801 132.585, 1505.302 122.553 C 1491.840 118.125, 1489 116.186, 1489 111.427 C 1489 104.237, 1495.878 101.451, 1511.500 102.316 C 1517 102.621, 1524.820 103.817, 1528.878 104.974 C 1532.936 106.131, 1536.461 106.873, 1536.712 106.622 C 1537.740 105.593, 1541.860 87.462, 1541.207 86.835 C 1539.214 84.923, 1524.058 82.812, 1509.500 82.420 C 1496.366 82.066, 1492.336 82.304, 1487 83.751 M 1603.131 83.541 C 1584.008 87.690, 1571.029 99.707, 1565.371 118.500 C 1562.488 128.076, 1562.945 145.199, 1566.364 155.661 C 1572.792 175.331, 1587.775 186.405, 1611.548 189.056 C 1627.699 190.857, 1644.578 187.953, 1655.637 181.472 C 1671.157 172.377, 1680.133 152.679, 1678.518 131.258 C 1676.607 105.899, 1663.746 89.945, 1640.404 83.975 C 1631.162 81.612, 1612.998 81.400, 1603.131 83.541 M 1745.362 83.924 C 1736.953 86.196, 1730.101 89.513, 1723.662 94.428 L 1719 97.987 1719 91.493 L 1719 85 1706.991 85 L 1694.982 85 1695.241 135.750 L 1695.500 186.500 1707.750 186.781 L 1720 187.062 1720 154.131 L 1720 121.201 1725.392 116.273 C 1731.768 110.445, 1743.304 104.534, 1751 103.151 C 1757.213 102.035, 1764.971 103.096, 1768.765 105.581 C 1774.126 109.094, 1774.441 111.451, 1774.812 150.780 L 1775.154 187.060 1787.327 186.780 L 1799.500 186.500 1799.783 156.500 C 1800.071 125.978, 1799.062 106.698, 1796.798 99.500 C 1795.075 94.019, 1787.647 86.774, 1781.465 84.543 C 1773.781 81.772, 1754.546 81.441, 1745.362 83.924 M 1127 103.774 C 1119.274 106.039, 1112.125 113.273, 1109.482 121.500 C 1105.580 133.646, 1107.501 149.873, 1113.883 158.678 C 1121.423 169.079, 1142.636 172.712, 1156.536 165.983 C 1166.873 160.979, 1171.500 151.391, 1171.500 134.978 C 1171.500 125.067, 1171.306 124.061, 1168.157 117.667 C 1164.342 109.919, 1159.608 105.852, 1151.655 103.490 C 1145.229 101.582, 1134.038 101.711, 1127 103.774 M 1608.372 103.774 C 1601.437 106.257, 1598.506 108.319, 1594.970 113.200 C 1590.800 118.957, 1589 125.874, 1589 136.144 C 1589 155.245, 1597.788 166.562, 1614.454 168.922 C 1626.469 170.624, 1637.537 167.790, 1644.188 161.309 C 1649.879 155.764, 1652.292 149.196, 1652.795 137.887 C 1653.521 121.533, 1648.917 111.460, 1638.032 105.589 C 1633.376 103.077, 1631.323 102.627, 1623.068 102.308 C 1615.606 102.019, 1612.372 102.341, 1608.372 103.774 M 1448.250 250.246 L 1438 253.287 1438 325.643 L 1438 398 1450.500 398 L 1463 398 1463 365.203 L 1463 332.406 1466.750 328.766 C 1472.100 323.572, 1481.395 318.253, 1489.354 315.829 C 1500.769 312.353, 1511.067 314.560, 1514.733 321.267 C 1516.315 324.161, 1516.531 328.351, 1516.796 361.250 L 1517.092 398 1529.608 398 L 1542.123 398 1541.764 357.750 C 1541.351 311.540, 1541.134 310.081, 1533.530 302.477 C 1527.439 296.386, 1519.116 293.881, 1505 293.891 C 1498.608 293.895, 1492.153 294.519, 1488.500 295.487 C 1481.256 297.407, 1470.755 302.186, 1466.276 305.603 L 1463 308.102 1463 277.551 L 1463 247 1460.750 247.103 C 1459.513 247.159, 1453.888 248.574, 1448.250 250.246 M 966 325.500 L 966 398 978.491 398 L 990.982 398 991.241 348.180 L 991.500 298.361 1015.208 347.930 L 1038.917 397.500 1047.659 397.500 L 1056.402 397.500 1079.951 348.220 L 1103.500 298.941 1103.759 348.470 L 1104.019 398 1116.509 398 L 1129 398 1129 325.472 L 1129 252.944 1115.278 253.222 L 1101.555 253.500 1074.635 309.724 L 1047.714 365.948 1020.644 309.474 L 993.574 253 979.787 253 L 966 253 966 325.500 M 1297.500 266.024 C 1294.200 267.035, 1288.912 268.600, 1285.750 269.502 L 1280 271.142 1280 284.071 L 1280 297 1271 297 L 1262 297 1262 307 L 1262 317 1270.907 317 L 1279.813 317 1280.240 349.250 C 1280.717 385.258, 1281.120 387.728, 1287.594 394.393 C 1293.036 399.997, 1299.370 401.382, 1316.456 400.705 C 1330.909 400.132, 1338.026 398.808, 1337.966 396.703 C 1337.910 394.734, 1334.277 379.944, 1333.710 379.377 C 1333.423 379.089, 1331.458 379.335, 1329.344 379.922 C 1324.114 381.374, 1313.059 381.252, 1310 379.709 C 1305.664 377.521, 1305.117 373.602, 1305.056 344.250 L 1305 317 1319.500 317 L 1334 317 1334 307 L 1334 297 1319.500 297 L 1305 297 1305 280.500 C 1305 271.425, 1304.662 264.042, 1304.250 264.094 C 1303.838 264.145, 1300.800 265.014, 1297.500 266.024 M 1383.500 265.712 C 1380.750 266.495, 1375.463 268.024, 1371.750 269.110 L 1365 271.085 1365 284.042 L 1365 297 1355.500 297 L 1346 297 1346 307 L 1346 317 1355.439 317 L 1364.878 317 1365.189 350.250 C 1365.464 379.683, 1365.706 383.958, 1367.298 387.486 C 1371.671 397.184, 1377.449 400.186, 1392.938 400.807 C 1403.558 401.233, 1419.085 399.802, 1421.757 398.150 C 1422.568 397.649, 1422.246 394.923, 1420.613 388.476 C 1418.491 380.099, 1418.178 379.518, 1415.920 379.769 C 1398.168 381.740, 1393.284 381.038, 1390.995 376.182 C 1390.110 374.306, 1389.580 365.015, 1389.230 345.278 L 1388.730 317.055 1403.615 316.778 L 1418.500 316.500 1418.786 306.750 L 1419.072 297 1404.060 297 L 1389.048 297 1388.774 280.644 L 1388.500 264.288 1383.500 265.712 M 1180 295.083 C 1170.882 296.669, 1156 301.198, 1156 302.386 C 1156 303.456, 1161.017 321.223, 1161.471 321.763 C 1161.593 321.908, 1164.574 320.946, 1168.096 319.627 C 1179.584 315.323, 1189.067 313.744, 1200.790 314.183 C 1216.882 314.786, 1220.885 317.380, 1222.517 328.263 L 1223.227 333 1216.364 333.003 C 1205.450 333.009, 1187.217 334.936, 1178.257 337.031 C 1163.475 340.488, 1155.034 346.159, 1150.290 355.818 C 1147.864 360.758, 1147.500 362.675, 1147.500 370.500 C 1147.500 378.313, 1147.866 380.245, 1150.275 385.150 C 1153.372 391.458, 1157.694 395.244, 1165.368 398.376 C 1169.839 400.201, 1172.561 400.470, 1186.500 400.470 C 1200.718 400.470, 1203.224 400.211, 1209 398.144 C 1212.575 396.865, 1217.638 394.285, 1220.250 392.411 L 1225 389.003 1225 393.502 L 1225 398 1236.562 398 L 1248.125 398 1247.747 358.250 C 1247.489 331.050, 1246.993 317.358, 1246.175 314.882 C 1243.369 306.392, 1235.884 299.642, 1225.651 296.373 C 1219.532 294.418, 1188.814 293.550, 1180 295.083 M 1595.634 295.586 C 1578.558 299.720, 1566.291 312.076, 1561.400 330.071 C 1558.962 339.042, 1558.956 358.346, 1561.389 366.457 C 1566.954 385.008, 1578.721 395.554, 1598.208 399.456 C 1608.125 401.442, 1630.981 401.481, 1642.165 399.530 C 1652.386 397.748, 1664 394.265, 1664 392.983 C 1664 392.171, 1661.817 386.133, 1658.167 376.848 L 1657.124 374.196 1648.312 377.321 C 1639.910 380.300, 1638.779 380.447, 1624 380.473 C 1606.741 380.503, 1601.567 379.367, 1593.999 373.884 C 1589.523 370.642, 1585.027 362.572, 1585.010 357.750 L 1585 355 1624.893 355 C 1660.348 355, 1664.854 354.824, 1665.393 353.418 C 1665.727 352.548, 1666 347.895, 1666 343.078 C 1666 332.850, 1663.320 321.108, 1659.496 314.583 C 1654.138 305.441, 1643.835 298.352, 1631.769 295.508 C 1623.794 293.627, 1603.546 293.672, 1595.634 295.586 M 1672.339 297.750 C 1672.591 298.163, 1682.735 320.874, 1694.881 348.220 L 1716.966 397.940 1710.388 410.220 C 1706.771 416.974, 1702.042 425.762, 1699.880 429.750 L 1695.948 437 1709.724 436.990 L 1723.500 436.979 1757 367.836 C 1775.425 329.808, 1790.650 298.313, 1790.833 297.847 C 1791.017 297.381, 1785.167 297.008, 1777.833 297.019 L 1764.500 297.038 1760.871 305.269 C 1758.875 309.796, 1751.270 326.685, 1743.971 342.799 L 1730.701 372.099 1715.210 334.549 L 1699.719 297 1685.801 297 C 1678.145 297, 1672.088 297.337, 1672.339 297.750 M 1605 314.137 C 1596.799 315.485, 1591.057 319.412, 1587.750 325.934 C 1586.237 328.918, 1585 332.403, 1585 333.679 L 1585 336 1613.894 336 L 1642.787 336 1641.865 331.895 C 1639.465 321.212, 1633.440 316.088, 1620.883 314.051 C 1613.654 312.878, 1612.633 312.883, 1605 314.137 M 1196.760 353.048 C 1183.005 354.650, 1174.991 358.961, 1172.920 365.872 C 1171.181 371.677, 1173.620 376.502, 1179.639 379.165 C 1183.708 380.965, 1185.749 381.184, 1194.695 380.787 C 1204.017 380.372, 1205.706 379.988, 1211.735 376.913 C 1220.904 372.237, 1223 368.969, 1223 359.352 L 1223 352 1213.250 352.131 C 1207.888 352.204, 1200.467 352.616, 1196.760 353.048" stroke="none" fill="#1c24ac" fill-rule="evenodd"/></svg>